:SAMPLES-PER-SECOND 30
:FRAME-RANGE 1-2643
:FULLY-SPECIFIED
:DEGREES
1735
root  55.7327 33.2288 72.816 10.1774 11.9321 17.2876
RightUpLeg  -53.1247 -22.1314 2.64979
RightLeg  62.8033 -11.3114 -23.0521
RightFoot  -22.8739 -0.629899 -4.70189
RightToes  5.38607e-012 1.2921e-014 -6.02303e-014
Spine  17.337 3.32395 20.4725
Spine1  -4.25849 8.81472 -12.0398
HEad  -28.5469 -47.0584 24.4942
LeftShoulder1  1.6594 -4.06719 -15.9999
LeftArm  10.02 6.57604 -30.9727
LeftForeArm  34.9376 -3.30005 -14.2751
LeftHand  -0.115669 3.53529 6.35484
RightShoulder  1.96298 9.74409 7.61073
RightArm  47.4995 62.9678 123.099
RightForeArm  71.4725 5.60477 11.0785
RightHand  0.120145 -6.45609 -15.0102
LeftUpLeg  -6.89894 -12.4033 12.6473
LeftLeg  63.7203 -4.39142 -8.98405
LeftFoot  -0.398657 1.34625 -13.9751
LeftToes  -4.79707e-012 -5.93756e-011 -7.55542e-012
1736
root  54.3071 33.3986 74.442 9.11951 8.33817 16.2162
RightUpLeg  -48.2968 -19.3574 5.59802
RightLeg  61.1264 -11.8867 -22.5167
RightFoot  -26.2637 -0.95986 -5.96396
RightToes  5.38607e-012 1.2921e-014 -6.02303e-014
Spine  18.8826 3.18188 20.7197
Spine1  -1.14391 8.68727 -8.85409
HEad  -28.8989 -44.9753 27.0419
LeftShoulder1  1.53296 -3.61714 -15.6017
LeftArm  5.78075 10.5962 -36.0299
LeftForeArm  32.8758 -2.76586 -13.715
LeftHand  -0.154914 2.86574 6.62499
RightShoulder  2.82124 10.4755 13.6682
RightArm  47.7921 56.6015 123.469
RightForeArm  63.1559 8.88735 11.4279
RightHand  0.148163 -6.66114 -15.1707
LeftUpLeg  -15.0064 -12.379 13.3518
LeftLeg  74.0411 -2.26696 -7.93909
LeftFoot  -6.27363 0.651667 -13.8247
LeftToes  -4.79707e-012 -5.93756e-011 -7.55542e-012
1737
root  52.7393 33.6777 76.1895 10.8833 5.07864 18.5931
RightUpLeg  -45.9687 -18.4873 5.90857
RightLeg  59.0036 -11.751 -20.5569
RightFoot  -29.0015 -1.31741 -7.20241
RightToes  5.38607e-012 1.2921e-014 -6.02303e-014
Spine  17.6694 4.48094 16.0053
Spine1  0.983354 8.43139 -5.66161
HEad  -26.3824 -44.8816 28.4424
LeftShoulder1  1.5083 -3.12501 -17.0297
LeftArm  6.95159 12.3705 -38.1237
LeftForeArm  28.9081 -4.82986 -13.4514
LeftHand  -0.161583 2.44429 6.00145
RightShoulder  3.11836 9.71159 17.4859
RightArm  40.1922 50.6494 119.479
RightForeArm  61.2225 8.27477 11.9605
RightHand  0.223333 -6.9632 -17.5877
LeftUpLeg  -26.8294 -14.5439 10.0209
LeftLeg  79.6954 -0.391854 -0.812438
LeftFoot  -10.0712 0.198278 -12.4234
LeftToes  -4.79707e-012 -5.93756e-011 -7.55542e-012
1738
root  50.9483 34.2351 77.9731 8.83594 -0.803833 16.9668
RightUpLeg  -37.5483 -14.9989 8.67843
RightLeg  53.5715 -12.3115 -17.6073
RightFoot  -29.1817 -1.61166 -8.98521
RightToes  5.38607e-012 1.2921e-014 -6.02303e-014
Spine  18.5864 4.90349 15.9384
Spine1  4.30245 9.44844 -6.94981
HEad  -23.9743 -44.1448 30.4932
LeftShoulder1  1.40171 -2.6056 -17.3076
LeftArm  5.99098 14.3543 -39.2144
LeftForeArm  28.379 -6.45236 -12.7136
LeftHand  -0.181713 2.38362 6.68486
RightShoulder  3.381 10.0499 18.9623
RightArm  27.9624 48.2691 116.936
RightForeArm  70.1487 0.845467 11.881
RightHand  0.213843 -6.95435 -17.0436
LeftUpLeg  -33.6794 -15.5917 10.0875
LeftLeg  80.1022 0.283296 4.0002
LeftFoot  -14.123 -0.126505 -8.67686
LeftToes  -4.79707e-012 -5.93756e-011 -7.55542e-012
1739
root  49.1029 34.7728 79.8592 6.1936 -7.78421 17.0618
RightUpLeg  -28.6209 -12.5342 9.0676
RightLeg  48.9571 -10.6693 -13.1671
RightFoot  -27.927 -1.76962 -10.8055
RightToes  5.38607e-012 1.2921e-014 -6.02303e-014
Spine  20.2883 6.15472 13.5969
Spine1  5.26795 10.8794 -8.0301
HEad  -17.6576 -44.3035 29.088
LeftShoulder1  1.24869 -2.02529 -16.991
LeftArm  2.92887 15.2854 -40.4145
LeftForeArm  27.2595 -4.86714 -12.7785
LeftHand  -0.185254 2.41569 6.89435
RightShoulder  3.52983 10.7327 18.7781
RightArm  20.4047 47.5324 113.598
RightForeArm  76.0523 -5.85868 8.40878
RightHand  0.224729 -7.26162 -15.136
LeftUpLeg  -38.3275 -17.6671 8.40873
LeftLeg  75.3101 1.09608 6.06952
LeftFoot  -16.0025 -0.205331 -7.39072
LeftToes  -4.79707e-012 -5.93756e-011 -7.55542e-012
1740
root  47.127 35.1702 81.9252 5.30884 -16.1715 18.0697
RightUpLeg  -21.9376 -8.75812 8.4613
RightLeg  45.5011 -7.79987 -8.72337
RightFoot  -25.4908 -1.60347 -11.4859
RightToes  5.38607e-012 1.2921e-014 -6.02303e-014
Spine  19.4397 8.60248 10.9438
Spine1  5.76983 13.6037 -11.1243
HEad  -12.8504 -45.7347 30.4008
LeftShoulder1  0.947809 -0.666074 -17.4628
LeftArm  4.32827 15.4907 -39.238
LeftForeArm  26.1113 -7.21336 -12.2104
LeftHand  -0.142287 2.60543 5.49886
RightShoulder  3.55626 10.7719 18.9057
RightArm  10.5139 47.3966 108.791
RightForeArm  77.6712 -5.05142 3.86318
RightHand  0.323239 -7.93573 -15.6408
LeftUpLeg  -43.3882 -18.499 7.65607
LeftLeg  66.122 1.39085 4.1854
LeftFoot  -16.8592 -0.253573 -7.34855
LeftToes  -4.79707e-012 -5.93756e-011 -7.55542e-012
1741
root  45.167 35.3267 83.9002 3.9176 -21.2968 18.6289
RightUpLeg  -15.8959 -5.73141 8.16817
RightLeg  44.1518 -5.45752 -5.95133
RightFoot  -22.1051 -1.10339 -10.0961
RightToes  5.38607e-012 1.2921e-014 -6.02303e-014
Spine  18.0668 8.89835 8.98087
Spine1  6.62936 14.1265 -13.8607
HEad  -10.9066 -45.6621 32.1387
LeftShoulder1  1.16194 -1.86449 -15.956
LeftArm  11.4896 19.2436 -38.9206
LeftForeArm  18.0805 -13.2561 -10.2212
LeftHand  -0.205382 2.44575 7.77362
RightShoulder  3.36325 10.4965 17.9359
RightArm  4.29644 47.5132 106.49
RightForeArm  74.5948 -4.56398 0.208283
RightHand  0.453777 -8.60752 -17.0215
LeftUpLeg  -48.1624 -21.295 9.22066
LeftLeg  54.357 0.254505 0.883857
LeftFoot  -17.5365 -0.46707 -10.5446
LeftToes  -4.79707e-012 -5.93756e-011 -7.55542e-012
